<?xml version="1.0" encoding="UTF-8" standalone="no"?>
<!DOCTYPE svg PUBLIC "-//W3C//DTD SVG 1.1//EN"
 "http://www.w3.org/Graphics/SVG/1.1/DTD/svg11.dtd">
<!-- Generated by graphviz version 2.38.0 (20140413.2041)
 -->
<!-- Title: models_diagram Pages: 1 -->
<svg width="1082pt" height="783pt"
 viewBox="0.00 0.00 1081.64 783.00" xmlns="http://www.w3.org/2000/svg" xmlns:xlink="http://www.w3.org/1999/xlink">
<g id="graph0" class="graph" transform="scale(1 1) rotate(0) translate(4 779)">
<title>models_diagram</title>
<polygon fill="none" stroke="none" points="-4,4 -4,-779 1077.64,-779 1077.64,4 -4,4"/>
<!-- Act -->
<g id="node1" class="node"><title>Act</title>
<path fill="none" stroke="black" d="M347.918,-425.5C347.918,-425.5 571.642,-425.5 571.642,-425.5 577.642,-425.5 583.642,-431.5 583.642,-437.5 583.642,-437.5 583.642,-513.5 583.642,-513.5 583.642,-519.5 577.642,-525.5 571.642,-525.5 571.642,-525.5 347.918,-525.5 347.918,-525.5 341.918,-525.5 335.918,-519.5 335.918,-513.5 335.918,-513.5 335.918,-437.5 335.918,-437.5 335.918,-431.5 341.918,-425.5 347.918,-425.5"/>
<text text-anchor="middle" x="459.78" y="-510.3" font-family="Times,serif" font-size="14.00">Act</text>
<polyline fill="none" stroke="black" points="335.918,-503.5 583.642,-503.5 "/>
<text text-anchor="start" x="343.918" y="-488.3" font-family="Times,serif" font-size="14.00">created_at :timestamp without time zone</text>
<text text-anchor="start" x="343.918" y="-474.3" font-family="Times,serif" font-size="14.00">description :text</text>
<text text-anchor="start" x="343.918" y="-460.3" font-family="Times,serif" font-size="14.00">id :integer</text>
<text text-anchor="start" x="343.918" y="-446.3" font-family="Times,serif" font-size="14.00">updated_at :timestamp without time zone</text>
<text text-anchor="start" x="343.918" y="-432.3" font-family="Times,serif" font-size="14.00">user_id :integer</text>
</g>
<!-- ActQuality -->
<g id="node2" class="node"><title>ActQuality</title>
<path fill="none" stroke="black" d="M139.918,-0.5C139.918,-0.5 363.642,-0.5 363.642,-0.5 369.642,-0.5 375.642,-6.5 375.642,-12.5 375.642,-12.5 375.642,-88.5 375.642,-88.5 375.642,-94.5 369.642,-100.5 363.642,-100.5 363.642,-100.5 139.918,-100.5 139.918,-100.5 133.918,-100.5 127.918,-94.5 127.918,-88.5 127.918,-88.5 127.918,-12.5 127.918,-12.5 127.918,-6.5 133.918,-0.5 139.918,-0.5"/>
<text text-anchor="middle" x="251.78" y="-85.3" font-family="Times,serif" font-size="14.00">ActQuality</text>
<polyline fill="none" stroke="black" points="127.918,-78.5 375.642,-78.5 "/>
<text text-anchor="start" x="135.918" y="-63.3" font-family="Times,serif" font-size="14.00">act_id :integer</text>
<text text-anchor="start" x="135.918" y="-49.3" font-family="Times,serif" font-size="14.00">created_at :timestamp without time zone</text>
<text text-anchor="start" x="135.918" y="-35.3" font-family="Times,serif" font-size="14.00">id :integer</text>
<text text-anchor="start" x="135.918" y="-21.3" font-family="Times,serif" font-size="14.00">quality_id :integer</text>
<text text-anchor="start" x="135.918" y="-7.3" font-family="Times,serif" font-size="14.00">updated_at :timestamp without time zone</text>
</g>
<!-- Act&#45;&gt;ActQuality -->
<g id="edge2" class="edge"><title>Act&#45;&gt;ActQuality</title>
<path fill="none" stroke="#bd086e" d="M327.537,-466.636C213.646,-456.775 61.774,-435.168 23.78,-389 -53.3117,-295.322 75.3417,-175.615 168.586,-106.846"/>
<ellipse fill="none" stroke="#bd086e" cx="331.683" cy="-466.988" rx="4" ry="4"/>
<polygon fill="#bd086e" stroke="#bd086e" points="168.847,-106.656 179.578,-104.396 172.886,-103.708 176.925,-100.761 176.925,-100.761 176.925,-100.761 172.886,-103.708 174.272,-97.1259 168.847,-106.656 168.847,-106.656"/>
</g>
<!-- Benefit -->
<g id="node3" class="node"><title>Benefit</title>
<path fill="none" stroke="black" d="M44.9177,-288.5C44.9177,-288.5 268.642,-288.5 268.642,-288.5 274.642,-288.5 280.642,-294.5 280.642,-300.5 280.642,-300.5 280.642,-376.5 280.642,-376.5 280.642,-382.5 274.642,-388.5 268.642,-388.5 268.642,-388.5 44.9177,-388.5 44.9177,-388.5 38.9177,-388.5 32.9177,-382.5 32.9177,-376.5 32.9177,-376.5 32.9177,-300.5 32.9177,-300.5 32.9177,-294.5 38.9177,-288.5 44.9177,-288.5"/>
<text text-anchor="middle" x="156.78" y="-373.3" font-family="Times,serif" font-size="14.00">Benefit</text>
<polyline fill="none" stroke="black" points="32.9177,-366.5 280.642,-366.5 "/>
<text text-anchor="start" x="40.9177" y="-351.3" font-family="Times,serif" font-size="14.00">act_id :integer</text>
<text text-anchor="start" x="40.9177" y="-337.3" font-family="Times,serif" font-size="14.00">created_at :timestamp without time zone</text>
<text text-anchor="start" x="40.9177" y="-323.3" font-family="Times,serif" font-size="14.00">description :text</text>
<text text-anchor="start" x="40.9177" y="-309.3" font-family="Times,serif" font-size="14.00">id :integer</text>
<text text-anchor="start" x="40.9177" y="-295.3" font-family="Times,serif" font-size="14.00">updated_at :timestamp without time zone</text>
</g>
<!-- Act&#45;&gt;Benefit -->
<g id="edge5" class="edge"><title>Act&#45;&gt;Benefit</title>
<path fill="none" stroke="#f54db7" d="M341.92,-421.988C320.332,-412.37 297.785,-402.324 276.154,-392.686"/>
<ellipse fill="none" stroke="#f54db7" cx="345.879" cy="-423.752" rx="4.00002" ry="4.00002"/>
<polygon fill="#f54db7" stroke="#f54db7" points="276.079,-392.653 268.776,-384.473 271.512,-390.618 266.945,-388.583 266.945,-388.583 266.945,-388.583 271.512,-390.618 265.114,-392.694 276.079,-392.653 276.079,-392.653"/>
</g>
<!-- CoreValue -->
<g id="node4" class="node"><title>CoreValue</title>
<path fill="none" stroke="black" d="M310.918,-295.5C310.918,-295.5 534.642,-295.5 534.642,-295.5 540.642,-295.5 546.642,-301.5 546.642,-307.5 546.642,-307.5 546.642,-369.5 546.642,-369.5 546.642,-375.5 540.642,-381.5 534.642,-381.5 534.642,-381.5 310.918,-381.5 310.918,-381.5 304.918,-381.5 298.918,-375.5 298.918,-369.5 298.918,-369.5 298.918,-307.5 298.918,-307.5 298.918,-301.5 304.918,-295.5 310.918,-295.5"/>
<text text-anchor="middle" x="422.78" y="-366.3" font-family="Times,serif" font-size="14.00">CoreValue</text>
<polyline fill="none" stroke="black" points="298.918,-359.5 546.642,-359.5 "/>
<text text-anchor="start" x="306.918" y="-344.3" font-family="Times,serif" font-size="14.00">created_at :timestamp without time zone</text>
<text text-anchor="start" x="306.918" y="-330.3" font-family="Times,serif" font-size="14.00">id :integer</text>
<text text-anchor="start" x="306.918" y="-316.3" font-family="Times,serif" font-size="14.00">name :character varying</text>
<text text-anchor="start" x="306.918" y="-302.3" font-family="Times,serif" font-size="14.00">updated_at :timestamp without time zone</text>
</g>
<!-- Act&#45;&gt;CoreValue -->
<g id="edge1" class="edge"><title>Act&#45;&gt;CoreValue</title>
<path fill="none" stroke="#16278a" d="M443.608,-415.493C441.414,-407.489 439.176,-399.322 437.019,-391.454"/>
<polygon fill="#16278a" stroke="#16278a" points="443.674,-415.736 441.978,-426.57 444.996,-420.558 446.317,-425.38 446.317,-425.38 446.317,-425.38 444.996,-420.558 450.657,-424.191 443.674,-415.736 443.674,-415.736"/>
<polygon fill="#16278a" stroke="#16278a" points="436.984,-391.326 438.681,-380.492 435.662,-386.503 434.341,-381.681 434.341,-381.681 434.341,-381.681 435.662,-386.503 430.001,-382.871 436.984,-391.326 436.984,-391.326"/>
</g>
<!-- Quality -->
<g id="node5" class="node"><title>Quality</title>
<path fill="none" stroke="black" d="M386.918,-137.5C386.918,-137.5 610.642,-137.5 610.642,-137.5 616.642,-137.5 622.642,-143.5 622.642,-149.5 622.642,-149.5 622.642,-239.5 622.642,-239.5 622.642,-245.5 616.642,-251.5 610.642,-251.5 610.642,-251.5 386.918,-251.5 386.918,-251.5 380.918,-251.5 374.918,-245.5 374.918,-239.5 374.918,-239.5 374.918,-149.5 374.918,-149.5 374.918,-143.5 380.918,-137.5 386.918,-137.5"/>
<text text-anchor="middle" x="498.78" y="-236.3" font-family="Times,serif" font-size="14.00">Quality</text>
<polyline fill="none" stroke="black" points="374.918,-229.5 622.642,-229.5 "/>
<text text-anchor="start" x="382.918" y="-214.3" font-family="Times,serif" font-size="14.00">assertion :character varying</text>
<text text-anchor="start" x="382.918" y="-200.3" font-family="Times,serif" font-size="14.00">core_value_id :integer</text>
<text text-anchor="start" x="382.918" y="-186.3" font-family="Times,serif" font-size="14.00">created_at :timestamp without time zone</text>
<text text-anchor="start" x="382.918" y="-172.3" font-family="Times,serif" font-size="14.00">id :integer</text>
<text text-anchor="start" x="382.918" y="-158.3" font-family="Times,serif" font-size="14.00">question :character varying</text>
<text text-anchor="start" x="382.918" y="-144.3" font-family="Times,serif" font-size="14.00">updated_at :timestamp without time zone</text>
</g>
<!-- Act&#45;&gt;Quality -->
<g id="edge3" class="edge"><title>Act&#45;&gt;Quality</title>
<path fill="none" stroke="#7ec757" d="M536.886,-417.832C544.498,-409.045 551.118,-399.395 555.78,-389 574.149,-348.042 568.018,-331.188 555.78,-288 553.165,-278.773 549.341,-269.563 544.891,-260.727"/>
<polygon fill="#7ec757" stroke="#7ec757" points="536.749,-417.981 526.66,-422.277 533.358,-421.655 529.966,-425.329 529.966,-425.329 529.966,-425.329 533.358,-421.655 533.273,-428.381 536.749,-417.981 536.749,-417.981"/>
<polygon fill="#7ec757" stroke="#7ec757" points="544.764,-260.489 544.02,-249.548 542.408,-256.079 540.051,-251.669 540.051,-251.669 540.051,-251.669 542.408,-256.079 536.082,-253.79 544.764,-260.489 544.764,-260.489"/>
</g>
<!-- Challenge -->
<g id="node8" class="node"><title>Challenge</title>
<ellipse fill="none" stroke="black" cx="648.78" cy="-338.5" rx="45.92" ry="18"/>
<text text-anchor="middle" x="648.78" y="-334.3" font-family="Times,serif" font-size="14.00">Challenge</text>
</g>
<!-- Act&#45;&gt;Challenge -->
<g id="edge4" class="edge"><title>Act&#45;&gt;Challenge</title>
<path fill="none" stroke="#8c4059" d="M543.697,-420.719C558.895,-410.462 574.457,-399.61 588.78,-389 600.253,-380.501 612.485,-370.578 622.89,-361.858"/>
<ellipse fill="none" stroke="#8c4059" cx="540.066" cy="-423.157" rx="4.00002" ry="4.00002"/>
<polygon fill="#8c4059" stroke="#8c4059" points="623.16,-361.63 633.701,-358.608 626.977,-358.401 630.795,-355.172 630.795,-355.172 630.795,-355.172 626.977,-358.401 627.889,-351.737 623.16,-361.63 623.16,-361.63"/>
</g>
<!-- CoreValue&#45;&gt;Quality -->
<g id="edge6" class="edge"><title>CoreValue&#45;&gt;Quality</title>
<path fill="none" stroke="#7d7a3f" d="M449.242,-288.058C454.029,-279.114 459.086,-269.666 464.067,-260.359"/>
<ellipse fill="none" stroke="#7d7a3f" cx="447.264" cy="-291.753" rx="4.00002" ry="4.00002"/>
<polygon fill="#7d7a3f" stroke="#7d7a3f" points="464.089,-260.318 472.775,-253.625 466.448,-255.909 468.808,-251.501 468.808,-251.501 468.808,-251.501 466.448,-255.909 464.84,-249.378 464.089,-260.318 464.089,-260.318"/>
</g>
<!-- Quality&#45;&gt;ActQuality -->
<g id="edge7" class="edge"><title>Quality&#45;&gt;ActQuality</title>
<path fill="none" stroke="#d3deea" d="M394.178,-133.364C378.118,-124.131 361.621,-114.648 345.809,-105.557"/>
<ellipse fill="none" stroke="#d3deea" cx="397.691" cy="-135.384" rx="4.00002" ry="4.00002"/>
<polygon fill="#d3deea" stroke="#d3deea" points="345.772,-105.536 339.345,-96.6504 341.437,-103.044 337.102,-100.552 337.102,-100.552 337.102,-100.552 341.437,-103.044 334.859,-104.453 345.772,-105.536 345.772,-105.536"/>
</g>
<!-- Solution -->
<g id="node6" class="node"><title>Solution</title>
<path fill="none" stroke="black" d="M837.918,-618.5C837.918,-618.5 1061.64,-618.5 1061.64,-618.5 1067.64,-618.5 1073.64,-624.5 1073.64,-630.5 1073.64,-630.5 1073.64,-706.5 1073.64,-706.5 1073.64,-712.5 1067.64,-718.5 1061.64,-718.5 1061.64,-718.5 837.918,-718.5 837.918,-718.5 831.918,-718.5 825.918,-712.5 825.918,-706.5 825.918,-706.5 825.918,-630.5 825.918,-630.5 825.918,-624.5 831.918,-618.5 837.918,-618.5"/>
<text text-anchor="middle" x="949.78" y="-703.3" font-family="Times,serif" font-size="14.00">Solution</text>
<polyline fill="none" stroke="black" points="825.918,-696.5 1073.64,-696.5 "/>
<text text-anchor="start" x="833.918" y="-681.3" font-family="Times,serif" font-size="14.00">challenge_id :integer</text>
<text text-anchor="start" x="833.918" y="-667.3" font-family="Times,serif" font-size="14.00">created_at :timestamp without time zone</text>
<text text-anchor="start" x="833.918" y="-653.3" font-family="Times,serif" font-size="14.00">description :text</text>
<text text-anchor="start" x="833.918" y="-639.3" font-family="Times,serif" font-size="14.00">id :integer</text>
<text text-anchor="start" x="833.918" y="-625.3" font-family="Times,serif" font-size="14.00">updated_at :timestamp without time zone</text>
</g>
<!-- User -->
<g id="node7" class="node"><title>User</title>
<path fill="none" stroke="black" d="M501.145,-562.5C501.145,-562.5 796.415,-562.5 796.415,-562.5 802.415,-562.5 808.415,-568.5 808.415,-574.5 808.415,-574.5 808.415,-762.5 808.415,-762.5 808.415,-768.5 802.415,-774.5 796.415,-774.5 796.415,-774.5 501.145,-774.5 501.145,-774.5 495.145,-774.5 489.145,-768.5 489.145,-762.5 489.145,-762.5 489.145,-574.5 489.145,-574.5 489.145,-568.5 495.145,-562.5 501.145,-562.5"/>
<text text-anchor="middle" x="648.78" y="-759.3" font-family="Times,serif" font-size="14.00">User</text>
<polyline fill="none" stroke="black" points="489.145,-752.5 808.415,-752.5 "/>
<text text-anchor="start" x="497.145" y="-737.3" font-family="Times,serif" font-size="14.00">created_at :timestamp without time zone</text>
<text text-anchor="start" x="497.145" y="-723.3" font-family="Times,serif" font-size="14.00">current_sign_in_at :timestamp without time zone</text>
<text text-anchor="start" x="497.145" y="-709.3" font-family="Times,serif" font-size="14.00">current_sign_in_ip :inet</text>
<text text-anchor="start" x="497.145" y="-695.3" font-family="Times,serif" font-size="14.00">email :character varying</text>
<text text-anchor="start" x="497.145" y="-681.3" font-family="Times,serif" font-size="14.00">encrypted_password :character varying</text>
<text text-anchor="start" x="497.145" y="-667.3" font-family="Times,serif" font-size="14.00">id :integer</text>
<text text-anchor="start" x="497.145" y="-653.3" font-family="Times,serif" font-size="14.00">last_sign_in_at :timestamp without time zone</text>
<text text-anchor="start" x="497.145" y="-639.3" font-family="Times,serif" font-size="14.00">last_sign_in_ip :inet</text>
<text text-anchor="start" x="497.145" y="-625.3" font-family="Times,serif" font-size="14.00">remember_created_at :timestamp without time zone</text>
<text text-anchor="start" x="497.145" y="-611.3" font-family="Times,serif" font-size="14.00">reset_password_sent_at :timestamp without time zone</text>
<text text-anchor="start" x="497.145" y="-597.3" font-family="Times,serif" font-size="14.00">reset_password_token :character varying</text>
<text text-anchor="start" x="497.145" y="-583.3" font-family="Times,serif" font-size="14.00">sign_in_count :integer</text>
<text text-anchor="start" x="497.145" y="-569.3" font-family="Times,serif" font-size="14.00">updated_at :timestamp without time zone</text>
</g>
<!-- User&#45;&gt;Act -->
<g id="edge8" class="edge"><title>User&#45;&gt;Act</title>
<path fill="none" stroke="#624777" d="M538.769,-556.325C530.921,-548.394 523.22,-540.612 515.891,-533.204"/>
<ellipse fill="none" stroke="#624777" cx="541.792" cy="-559.379" rx="4.00002" ry="4.00002"/>
<polygon fill="#624777" stroke="#624777" points="515.727,-533.039 511.892,-522.766 512.21,-529.485 508.693,-525.931 508.693,-525.931 508.693,-525.931 512.21,-529.485 505.494,-529.096 515.727,-533.039 515.727,-533.039"/>
</g>
<!-- User&#45;&gt;Quality -->
<g id="edge9" class="edge"><title>User&#45;&gt;Quality</title>
<path fill="none" stroke="#d33b37" d="M703.536,-552.679C733.14,-472.537 754.367,-366.325 703.78,-288 686.815,-261.733 660.403,-242.848 632.115,-229.297"/>
<polygon fill="#d33b37" stroke="#d33b37" points="703.427,-552.966 695.679,-560.727 701.658,-557.643 699.888,-562.319 699.888,-562.319 699.888,-562.319 701.658,-557.643 704.097,-563.912 703.427,-552.966 703.427,-552.966"/>
<polygon fill="#d33b37" stroke="#d33b37" points="631.972,-229.232 624.742,-220.988 627.423,-227.157 622.874,-225.082 622.874,-225.082 622.874,-225.082 627.423,-227.157 621.007,-229.177 631.972,-229.232 631.972,-229.232"/>
</g>
<!-- User&#45;&gt;Challenge -->
<g id="edge10" class="edge"><title>User&#45;&gt;Challenge</title>
<path fill="none" stroke="#3932c6" d="M648.78,-552.208C648.78,-485.622 648.78,-407.255 648.78,-366.775"/>
<polygon fill="#3932c6" stroke="#3932c6" points="648.78,-552.365 644.28,-562.365 648.78,-557.365 648.78,-562.365 648.78,-562.365 648.78,-562.365 648.78,-557.365 653.28,-562.365 648.78,-552.365 648.78,-552.365"/>
<polygon fill="#3932c6" stroke="#3932c6" points="648.78,-366.634 653.28,-356.634 648.78,-361.634 648.78,-356.634 648.78,-356.634 648.78,-356.634 648.78,-361.634 644.28,-356.634 648.78,-366.634 648.78,-366.634"/>
</g>
</g>
</svg>
